
> faceless-video-maker@1.0.0 artist
> ts-node -r dotenv/config --project tsconfig-node.json branded-video-maker.ts artist-promo Chicago Skyway

API Key length: 164
API Key prefix: sk-proj-c-
Creating branded video using artist-promo template...
Loading data for artist: Chicago Skyway
Processing audio from Arweave...
Processing audio from Arweave...
Downloading audio from https://gdzput7zxnda3rncbjctigt424v2sza3chbo5e4tltdfs53tjm5a.arweave.net/MPL6T_m7Rg3FogpFNBp81yupZBsRwu6Tk1zGWXdzSzo...
Downloaded file size: 120000321 bytes
Download complete. Creating 30s clip...
Executing ffmpeg command: ffmpeg -y -i "./output/temp_audio.mp3" -ss 17 -t 30 -codec:a libmp3lame -q:a 0 -b:a 320k "./output/audio.mp3"
FFmpeg processing output: ffmpeg version 7.1.1 Copyright (c) 2000-2025 the FFmpeg developers
  built with Apple clang version 16.0.0 (clang-1600.0.26.6)
  configuration: --prefix=/usr/local/Cellar/ffmpeg/7.1.1_1 --enable-shared --enable-pthreads --enable-version3 --cc=clang --host-cflags= --host-ldflags='-Wl,-ld_classic' --enable-ffplay --enable-gnutls --enable-gpl --enable-libaom --enable-libaribb24 --enable-libbluray --enable-libdav1d --enable-libharfbuzz --enable-libjxl --enable-libmp3lame --enable-libopus --enable-librav1e --enable-librist --enable-librubberband --enable-libsnappy --enable-libsrt --enable-libssh --enable-libsvtav1 --enable-libtesseract --enable-libtheora --enable-libvidstab --enable-libvmaf --enable-libvorbis --enable-libvpx --enable-libwebp --enable-libx264 --enable-libx265 --enable-libxml2 --enable-libxvid --enable-lzma --enable-libfontconfig --enable-libfreetype --enable-frei0r --enable-libass --enable-libopencore-amrnb --enable-libopencore-amrwb --enable-libopenjpeg --enable-libspeex --enable-libsoxr --enable-libzmq --enable-libzimg --disable-libjack --disable-indev=jack --enable-videotoolbox --enable-audiotoolbox
  libavutil      59. 39.100 / 59. 39.100
  libavcodec     61. 19.101 / 61. 19.101
  libavformat    61.  7.100 / 61.  7.100
  libavdevice    61.  3.100 / 61.  3.100
  libavfilter    10.  4.100 / 10.  4.100
  libswscale      8.  3.100 /  8.  3.100
  libswresample   5.  3.100 /  5.  3.100
  libpostproc    58.  3.100 / 58.  3.100
[mp3 @ 0x7fa602730540] Estimating duration from bitrate, this may be inaccurate
Input #0, mp3, from './output/temp_audio.mp3':
  Metadata:
    title           : Playing to the wall
    artist          : Chicago Skyway
    iTunPGAP        : 0
    encoded_by      : iTunes 10.2.1
    iTunNORM        :  00000036 0000002A 00000620 0000032E 0025E7FA 00243B82 00004131 00003D35 00275063 0026A888
    iTunSMPB        :  00000000 00000210 000008F0 0000000007E2AA00 00000000 0726E633 00000000 00000000 00000000 00000000 00000000 00000000
  Duration: 00:49:59.95, start: 0.000000, bitrate: 320 kb/s
  Stream #0:0: Audio: mp3 (mp3float), 44100 Hz, stereo, fltp, 320 kb/s
Stream mapping:
  Stream #0:0 -> #0:0 (mp3 (mp3float) -> mp3 (libmp3lame))
Press [q] to stop, [?] for help
Output #0, mp3, to './output/audio.mp3':
  Metadata:
    TIT2            : Playing to the wall
    TPE1            : Chicago Skyway
    iTunPGAP        : 0
    TENC            : iTunes 10.2.1
    iTunNORM        :  00000036 0000002A 00000620 0000032E 0025E7FA 00243B82 00004131 00003D35 00275063 0026A888
    iTunSMPB        :  00000000 00000210 000008F0 0000000007E2AA00 00000000 0726E633 00000000 00000000 00000000 00000000 00000000 00000000
    TSSE            : Lavf61.7.100
  Stream #0:0: Audio: mp3, 44100 Hz, stereo, fltp, 320 kb/s
      Metadata:
        encoder         : Lavc61.19.101 libmp3lame
size=     512KiB time=00:00:22.80 bitrate= 183.9kbits/s speed=45.4x    [out#0/mp3 @ 0x7fa603408000] video:0KiB audio:926KiB subtitle:0KiB other streams:0KiB global headers:0KiB muxing overhead: 0.151790%
size=     928KiB time=00:00:30.00 bitrate= 253.4kbits/s speed=44.4x    

Generated audio clip size: 950120 bytes
Output audio bitrate: 253.021 kbps
Successfully created 30s clip starting at 17s
Successfully processed audio from Arweave
Loading brand style guide...
Cataloging existing promo assets...
Found 0 existing promo assets.
Processing template...
Loading template from templates/artist-promo.json...
Template structure: {
  name: 'Artist Promotion',
  type: 'artist-promo',
  hasScript: true,
  sectionsCount: 3
}
Generating script using prompt: Create a promotional script for electronic music artist Chicago Skyway, who produces Acid, Deep House music. The script should highlight their unique style and sound, featuring their mix titled "Playing to the Wall". placeholder
Sending request to OpenAI API...
Script content: (Upbeat electronic music fades in)

(Quick Cut: A vinyl record starts spinning)

NARRATOR (Voiceover): "Deep, pulsating rhythms. Hypnotic echoes. The exquisite sensation that gets you lost in time, dropped in a sea of rhythm…"

(Cuts to: Clips of Chicago Skyway DJ-ing at different venues. The crowd is grooving along.)

NARRATOR: "This is Chicago Skyway - music maestro, pioneering DJ and the heart-beat behind the explosive Acid and Deep House music revolution."

(Quick Cut: Sound waves visualized on a screen)

NARRATOR: "Merging moody atmospheres with electric pulsations to create sounds that stir your soul."

(Cuts to: Montage showcasing album cover of "Playing to the Wall")

NARRATOR: "Check out his groundbreaking mix 'Playing to the Wall'- a glorious, vibrant journey that blurs the line between past, present, and future."

(Quick Cut: Close-ups of concert-goers lost in the rhythm.)

NARRATOR: "So turn up the volume, close your eyes and let the beat carry you away. This isn't just music - it's a movement."

(Cuts to: Slow motion clip of Chicago Skyway hitting the last beat, drops arm onto mixer.)

NARRATOR: "Chicago Skyway. Where experience meets expression, and the rhythm becomes a part of you."

(Screen wipes to: Artist logo and social media handles.)

NARRATOR: "Join the journey. Get lost in the rhythm."

(Screen fades out with music overlay.)

NARRATOR: "Let the music play to your walls."

(Music fades out.)

Generating image for section 1 with prompt: Dark, moody electronic music venue with subtle lighting and dynamic movement, featuring elements of Acid, Deep House music culture, styled using #1A1F2C and #8B5CF6 color scheme, confident, archival, analog-accurate feeling
Generating image 1/1...
Downloading generated image...
Skipping TTS, creating silent audio file...
Created silent audio track
Generated script (1437 characters) and 3 scenes.
Creating final video with brand styling...
Audio file size: 120688 bytes
Creating video with audio...
Checking for valid images in output/scenes directory...
Found 4 valid images
Creating video from available images...
Adding audio to video...
Video with audio created at: output/artist-promo/2025/04_Apr/chicago_skyway_Apr19_3:31PM_CT.mp4
✅ Branded video created successfully!
Output: output/artist-promo/2025/04_Apr/chicago_skyway_Apr19_3:31PM_CT.mp4
Video creation process completed.
